<svg xmlns="http://www.w3.org/2000/svg" width="681" height="641.142" viewBox="0 0 681 641.142">
  <g id="Group_11609" data-name="Group 11609" transform="translate(150 150)">
    <g id="_3d_Image_with_Elements" data-name="3d Image with Elements">
      <g id="Group_11607" data-name="Group 11607">
        <g id="Gradint" transform="translate(0 0)">
          <circle id="Ellipse_" data-name="Ellipse " cx="84.5" cy="84.5" r="84.5" transform="translate(212 34.142)" fill="#f21e76" opacity="0.51"/>
          <circle id="Ellipse_2" data-name="Ellipse " cx="84.5" cy="84.5" r="84.5" transform="translate(0 172.142)" fill="#fbbc04" opacity="0.19"/>
          <path id="Ellipse_3" data-name="Ellipse " d="M111.945,0C173.77,0,223.89,33.907,223.89,75.734s-50.119,75.734-111.945,75.734c-55.457,0-110.456-63.35-110.456-63.35A94.259,94.259,0,0,1,0,75.734C0,33.907,50.119,0,111.945,0Z" transform="translate(90.355)" fill="#0083fd" opacity="0.19"/>
          <circle id="Ellipse_4" data-name="Ellipse " cx="70" cy="70" r="70" transform="translate(72 90.142)" fill="#34a853" opacity="0.19"/>
        </g>
      </g>
      <path id="Elements" d="M74.162,136.314a1.757,1.757,0,0,1-.117-2.425,2.058,2.058,0,0,1,1.663-.979l-.024-.039h0l-4.865-7.786a.262.262,0,0,1,.444-.278l.01.016c.259.239.569.42,1.765.434h.229c.979,0,2.8-.007,3.122,1.6a.261.261,0,1,1-.513.1c-.22-1.094-1.409-1.182-2.606-1.181H73.03a5.919,5.919,0,0,1-1.233-.115l2.2,3.522h0l2.6,4.159a1.918,1.918,0,0,1-.142,2.176,2.085,2.085,0,0,1-1.633.987A1.167,1.167,0,0,1,74.162,136.314Zm139.882-1.062c-2.369-.13-4.215-1.672-4.119-3.454s2.1-3.112,4.469-2.985a4.81,4.81,0,0,1,3.459,1.589l7.635-14.987-16.2-3.907-8.644,16.966a2.742,2.742,0,0,1-.366.717l-.033.067-.015-.008a4.572,4.572,0,0,1-3.935,1.6c-2.37-.134-4.216-1.671-4.119-3.452s2.1-3.114,4.467-2.989a4.831,4.831,0,0,1,3.44,1.572l7.574-14.866h-.011l2.306-4.526,19.393,4.881-2.215,4.345h-.013l-8.815,17.3-.011-.007a4.177,4.177,0,0,1-3.942,2.154C214.248,135.26,214.146,135.257,214.044,135.252ZM21.8,131.123a2.2,2.2,0,0,1-.207-.1,1.562,1.562,0,0,1-.781-.617.072.072,0,0,0-.014-.016l0,0a1.752,1.752,0,0,1-.106-.177,1.581,1.581,0,1,1,2.1.748,1.143,1.143,0,0,1-.174.064,2.311,2.311,0,0,0,2.083-.87c.777-1.051.6-2.859-.664-4.322-.416-.583-.879-1.192-1.36-1.817a10.65,10.65,0,0,1-4.334,1.443,7.332,7.332,0,0,1-4.935-1.236,6.87,6.87,0,0,1-2.729-4.657,12.757,12.757,0,0,1,.368-5.3c.115-.445.235-.865.365-1.237l.381-1.142a16.721,16.721,0,0,0,.509-1.909c-3-4.558-5.74-9.038-3.22-10.843,1.187-.754,3.906.771,5.873,5.838a9.534,9.534,0,0,1,.321,5.336,13.557,13.557,0,0,1-.584,2.154c.339.49.68.973,1.027,1.441.183.249.363.487.544.731a5.551,5.551,0,0,1,1.173-1.5,5.415,5.415,0,0,1,3.393-1.4,5.532,5.532,0,0,1,3.77,1.316,6.2,6.2,0,0,1,2.153,3.541,5.909,5.909,0,0,1-.742,4.221,10.07,10.07,0,0,1-2.717,2.808c.47.609.922,1.209,1.339,1.786a12.414,12.414,0,0,1,.819,1.267,3.679,3.679,0,0,1,.4,1.391,2.937,2.937,0,0,1-.791,2.4,2.966,2.966,0,0,1-2.124.887A2.9,2.9,0,0,1,21.8,131.123Zm-7.5-17.639-.224.53c-.173.388-.306.737-.421,1.064a11.585,11.585,0,0,0-.788,4.237,4.855,4.855,0,0,0,1.605,3.531,5.952,5.952,0,0,0,3.82,1.3,8.364,8.364,0,0,0,3.814-.88c-.668-.86-1.376-1.764-2.1-2.718-.938-1.224-1.927-2.521-2.942-3.877a4.641,4.641,0,0,0-.232,1.659,5.885,5.885,0,0,0,.958,2.9,9.228,9.228,0,0,0,.691.942s-.087-.051-.259-.156a5.491,5.491,0,0,1-2.238-6.8c-.238-.326-.476-.647-.717-.979q-.4-.564-.805-1.136C14.413,113.23,14.359,113.357,14.3,113.484Zm4.276.979a4.535,4.535,0,0,0-1.252,1.573c1.1,1.443,2.184,2.813,3.216,4.094.777.966,1.519,1.894,2.216,2.787a7.924,7.924,0,0,0,2.629-2.484,4.223,4.223,0,0,0,.51-3.613,5.052,5.052,0,0,0-4.642-3.266A4.31,4.31,0,0,0,18.578,114.463ZM10.606,100.6c-1.283.211-.9,3.706,1.864,8.385a33.674,33.674,0,0,0,.289-3.6,7.986,7.986,0,0,0-.824-3.7c-.223-.45-.633-1.1-1.2-1.1A.785.785,0,0,0,10.606,100.6ZM20.8,130.39h0S20.8,130.389,20.8,130.39Zm123.854-5.282c-.765-.042-1.36-.54-1.329-1.114a1.254,1.254,0,0,1,1.44-.962,1.551,1.551,0,0,1,1.115.513l2.463-4.831-5.222-1.26-2.788,5.469a.869.869,0,0,1-.118.231l-.011.021h0a1.472,1.472,0,0,1-1.27.514c-.764-.043-1.358-.538-1.327-1.111a1.253,1.253,0,0,1,1.44-.965,1.559,1.559,0,0,1,1.109.507l2.441-4.793h0l.743-1.459,6.252,1.573-.714,1.4h0l-2.842,5.578h0a1.349,1.349,0,0,1-1.271.694ZM97.112,110.344c-2.013-1.584-1.942-5.053.168-7.75a6.58,6.58,0,0,1,5.518-2.747l-.069-.132-.008,0L88.958,73.835a.836.836,0,1,1,1.477-.785l.03.055c.772.817,1.717,1.466,5.524,1.771l.733.054c3.117.209,8.915.6,9.587,5.8a.836.836,0,0,1-1.659.212c-.456-3.535-4.224-4.083-8.041-4.342l-.753-.053a18.71,18.71,0,0,1-3.9-.64l6.226,11.71.008,0,7.351,13.827c1.176,1.777.855,4.609-.936,6.9a6.809,6.809,0,0,1-5.111,2.792A3.8,3.8,0,0,1,97.112,110.344ZM158.53,94.471a3.643,3.643,0,0,1-2.2-.9,3.508,3.508,0,0,1-.966-1.448c-.031-.091-.052-.176-.074-.262a1.863,1.863,0,0,1-.075-1.174.205.205,0,0,0,0-.024h0a1.964,1.964,0,0,1,.073-.235,1.87,1.87,0,1,1,1,2.44,1.4,1.4,0,0,1-.193-.1,2.737,2.737,0,0,0,2.412,1.144c1.539-.15,2.99-1.733,3.272-4.005.184-.827.353-1.717.521-2.633a12.6,12.6,0,0,1-4.7-2.667,8.668,8.668,0,0,1-2.819-5.315,8.124,8.124,0,0,1,1.934-6.084,15.077,15.077,0,0,1,4.95-3.872c.485-.252.949-.479,1.377-.659l1.3-.568a19.92,19.92,0,0,0,2.08-1.064c1.632-6.246,3.4-12.2,6.982-11.411,1.6.446,2.413,4.044-.483,9.783a11.253,11.253,0,0,1-4.436,4.5,15.732,15.732,0,0,1-2.355,1.193c-.161.685-.315,1.368-.454,2.042-.074.357-.141.7-.212,1.056a6.6,6.6,0,0,1,2.243-.153,6.407,6.407,0,0,1,3.917,1.874,6.549,6.549,0,0,1,1.827,4.355,7.338,7.338,0,0,1-1.408,4.695,7.006,7.006,0,0,1-4.3,2.687,11.893,11.893,0,0,1-4.618-.165c-.164.9-.332,1.768-.509,2.592a15.1,15.1,0,0,1-.466,1.721,4.352,4.352,0,0,1-.909,1.451,3.506,3.506,0,0,1-2.553,1.21Q158.619,94.477,158.53,94.471Zm6.557-18.222c-.4,2.109-.746,4.146-1.055,6.067-.234,1.448-.462,2.834-.694,4.153a9.4,9.4,0,0,0,4.263.345,5,5,0,0,0,3.58-2.412,5.7,5.7,0,0,0,.548-3.917,5.372,5.372,0,0,0-4.268-4.38,5.125,5.125,0,0,0-.855-.071A5.573,5.573,0,0,0,165.086,76.25Zm-.15-4.676-.646.223c-.478.154-.889.314-1.269.47a13.763,13.763,0,0,0-4.349,2.662,5.758,5.758,0,0,0-1.833,4.205,7.053,7.053,0,0,0,1.884,4.385,9.918,9.918,0,0,0,3.793,2.656c.227-1.271.46-2.605.728-4,.334-1.793.691-3.69,1.082-5.655a5.476,5.476,0,0,0-1.643,1.11,6.936,6.936,0,0,0-1.792,3.138,10.609,10.609,0,0,0-.282,1.354s-.025-.117-.068-.352a6.464,6.464,0,0,1-.1-1.052,6.448,6.448,0,0,1,4.308-6.3c.1-.47.192-.933.294-1.408.121-.529.24-1.067.36-1.606C165.247,71.469,165.092,71.521,164.936,71.574Zm2.5-5.169a40.035,40.035,0,0,0,3.388-2.593,9.423,9.423,0,0,0,2.6-3.65c.236-.591.5-1.554-.093-2.031a.773.773,0,0,0-.5-.172C171.477,57.958,169.131,61.008,167.438,66.4ZM32.827,88.351c-.667-2.207,1.173-4.72,4.113-5.617a6.255,6.255,0,0,1,4.881.389l2.633-21.449-.013,0,.8-6.527L71.008,52.5l-.771,6.27-.016,0-3.064,24.96h-.016c-.1,1.878-1.769,3.746-4.22,4.494-2.943.891-5.871-.167-6.543-2.377s1.172-4.719,4.116-5.614a6.224,6.224,0,0,1,4.914.4l2.655-21.623-21.447,2.42L43.61,85.911a3.487,3.487,0,0,1-.126,1.035l-.012.1-.02,0a5.93,5.93,0,0,1-4.082,3.688,7.241,7.241,0,0,1-2.087.314C35.15,91.042,33.337,90.029,32.827,88.351ZM155.22,90.665s0,0,0,0ZM9.548,69.246c-2.449-.221-4.3-1.887-4.14-3.726s2.286-3.147,4.735-2.932a4.724,4.724,0,0,1,3.813,2.25l.052-.094-.005,0L24.211,46.326a.6.6,0,1,1,1.051.583l-.023.039c-.189.784-.211,1.608,1.1,4.021l.254.462c1.093,1.959,3.125,5.606.26,8.043a.6.6,0,0,1-.779-.917c1.952-1.658.808-4.142-.529-6.543l-.263-.474a13.361,13.361,0,0,1-1.142-2.6L19.518,57.27l.005,0L14.07,67.111a4.24,4.24,0,0,1-4,2.159Q9.814,69.27,9.548,69.246Zm193.4-9.721c-.811-.638-.781-2.031.066-3.114a2.8,2.8,0,0,1,1.89-1.111l-4.541-8.539,0,0-1.383-2.6,8.766-7.586,1.326,2.5-.005.007,5.284,9.938-.005,0a2.472,2.472,0,0,1-.395,2.73c-.85,1.083-2.194,1.447-3.009.809s-.78-2.031.068-3.115a2.787,2.787,0,0,1,1.9-1.114l-4.577-8.609L201.1,46.117l5.182,9.745a1.609,1.609,0,0,1,.219.412l.02.039-.008,0a2.651,2.651,0,0,1-.55,2.4,2.741,2.741,0,0,1-2.054,1.122A1.522,1.522,0,0,1,202.952,59.525ZM111.775,52.3a1.756,1.756,0,0,1,1.187-2.12,2.061,2.061,0,0,1,1.929.053v-.046h0V41a.262.262,0,0,1,.525,0v.02c.093.339.259.658,1.267,1.3l.193.122c.831.517,2.377,1.478,1.8,3.012a.262.262,0,1,1-.49-.184c.393-1.045-.568-1.75-1.585-2.384l-.2-.125a5.787,5.787,0,0,1-.985-.75v4.153h0v4.9a1.916,1.916,0,0,1-1.272,1.771,2.438,2.438,0,0,1-.983.215A1.441,1.441,0,0,1,111.775,52.3ZM7.7,45.786c-.042-.017-.076-.035-.113-.054a.852.852,0,0,1-.43-.326L7.154,45.4h0c-.02-.031-.042-.062-.059-.1a.857.857,0,1,1,1.145.385.687.687,0,0,1-.094.036,1.252,1.252,0,0,0,1.119-.49,1.941,1.941,0,0,0-.4-2.334c-.231-.312-.487-.638-.754-.971a5.758,5.758,0,0,1-2.333.822A3.97,3.97,0,0,1,3.1,42.128a3.714,3.714,0,0,1-1.521-2.5,6.9,6.9,0,0,1,.148-2.874c.059-.243.119-.471.187-.674l.2-.622a9.079,9.079,0,0,0,.256-1.039C.694,31.985-.83,29.587.516,28.585c.636-.42,2.122.38,3.236,3.106a5.151,5.151,0,0,1,.223,2.884,7.206,7.206,0,0,1-.294,1.173c.188.262.377.52.569.771.1.133.2.26.3.391a3.021,3.021,0,0,1,.621-.821A2.928,2.928,0,0,1,7,35.3a2.991,2.991,0,0,1,2.052.678,3.345,3.345,0,0,1,1.2,1.9,3.2,3.2,0,0,1-.362,2.291A5.465,5.465,0,0,1,8.442,41.71c.26.325.511.645.742.955a6.69,6.69,0,0,1,.455.678,2,2,0,0,1,.229.75A1.593,1.593,0,0,1,9.463,45.4a1.615,1.615,0,0,1-1.17.5A1.571,1.571,0,0,1,7.7,45.786ZM3.475,36.307l-.117.29c-.09.212-.158.4-.219.58a6.313,6.313,0,0,0-.387,2.3,2.639,2.639,0,0,0,.9,1.9,3.224,3.224,0,0,0,2.082.666,4.522,4.522,0,0,0,2.056-.513c-.371-.46-.761-.94-1.161-1.451C6.112,39.422,5.565,38.729,5,38a2.517,2.517,0,0,0-.11.9,3.2,3.2,0,0,0,.546,1.563,4.977,4.977,0,0,0,.384.5s-.048-.027-.142-.082a2.789,2.789,0,0,1-.393-.282,2.949,2.949,0,0,1-.882-3.38l-.4-.523c-.146-.2-.3-.4-.447-.608C3.532,36.167,3.5,36.237,3.475,36.307ZM5.8,36.8a2.441,2.441,0,0,0-.662.863c.608.772,1.208,1.5,1.778,2.187.431.516.842,1.011,1.227,1.487a4.3,4.3,0,0,0,1.4-1.369A2.285,2.285,0,0,0,9.783,38a2.606,2.606,0,0,0-1.189-1.366,2.638,2.638,0,0,0-1.311-.359A2.345,2.345,0,0,0,5.8,36.8ZM1.351,29.368C.659,29.494.9,31.382,2.44,33.889a18.3,18.3,0,0,0,.122-1.949,4.312,4.312,0,0,0-.48-1.995c-.125-.24-.35-.585-.656-.585A.386.386,0,0,0,1.351,29.368Zm5.8,16.03h0S7.153,45.4,7.154,45.4ZM48.981,33.7a1.758,1.758,0,0,1-1.169-2.128,2.062,2.062,0,0,1,1.067-1.608l-.039-.024h0l-7.786-4.866a.262.262,0,1,1,.278-.444l.016.009c.337.1.7.13,1.776-.384l.207-.1c.878-.431,2.513-1.233,3.507.071a.261.261,0,1,1-.416.315c-.678-.886-1.785-.444-2.86.082l-.212.1a5.962,5.962,0,0,1-1.159.438l3.522,2.2h0l4.159,2.6A1.919,1.919,0,0,1,50.7,31.98a1.823,1.823,0,0,1-1.558,1.729A1.137,1.137,0,0,1,48.981,33.7Zm95.672-.315a2.825,2.825,0,0,1-1.27-.6,2.174,2.174,0,0,1-.16-.15,1.5,1.5,0,0,1-.541-.781l-.008-.018h0a1.865,1.865,0,0,1-.048-.193,1.509,1.509,0,1,1,1.708,1.27,1.13,1.13,0,0,1-.177.009,2.2,2.2,0,0,0,2.143-.212c1-.742,1.349-2.44.6-4.129-.216-.648-.468-1.333-.734-2.038a10.127,10.127,0,0,1-4.357.107,6.991,6.991,0,0,1-4.158-2.5,6.556,6.556,0,0,1-1.191-5.011,12.148,12.148,0,0,1,1.815-4.736c.229-.375.456-.726.678-1.027l.667-.936a16.226,16.226,0,0,0,1-1.6c-1.467-5-2.715-9.849.087-10.794,1.294-.358,3.349,1.794,3.731,6.967a9.08,9.08,0,0,1-1.2,4.958,12.934,12.934,0,0,1-1.133,1.805c.173.541.349,1.077.534,1.6.1.278.195.546.291.82a5.284,5.284,0,0,1,1.489-1.039,5.167,5.167,0,0,1,3.487-.332,5.279,5.279,0,0,1,3.074,2.253,5.914,5.914,0,0,1,.977,3.832,5.652,5.652,0,0,1-1.855,3.644,9.606,9.606,0,0,1-3.264,1.805c.259.687.506,1.359.726,2a12.528,12.528,0,0,1,.393,1.384,3.533,3.533,0,0,1-.025,1.381,2.8,2.8,0,0,1-1.391,1.969,2.9,2.9,0,0,1-1.364.336A3.111,3.111,0,0,1,144.653,33.382ZM141.46,14.591l-.354.423c-.266.3-.485.586-.682.853a11.1,11.1,0,0,0-1.9,3.648A4.641,4.641,0,0,0,139,23.184a5.7,5.7,0,0,0,3.126,2.25,7.98,7.98,0,0,0,3.727.26c-.37-.972-.765-1.992-1.157-3.065-.514-1.378-1.055-2.839-1.6-4.359a4.434,4.434,0,0,0-.675,1.45,5.606,5.606,0,0,0,.066,2.915,8.439,8.439,0,0,0,.368,1.054s-.066-.071-.193-.215a5.235,5.235,0,0,1-.144-6.832c-.126-.365-.255-.725-.381-1.1-.137-.417-.278-.838-.419-1.262C141.632,14.39,141.546,14.491,141.46,14.591Zm3.628,2.086a4.3,4.3,0,0,0-1.58,1.087c.6,1.624,1.207,3.177,1.79,4.633.44,1.1.859,2.153,1.246,3.161a7.544,7.544,0,0,0,3.091-1.534,4.033,4.033,0,0,0,1.475-3.154,4.61,4.61,0,0,0-1.25-2.938,4.487,4.487,0,0,0-3.32-1.524A3.983,3.983,0,0,0,145.088,16.677Zm-4.047-6.7a32.236,32.236,0,0,0,1.266-3.2,7.621,7.621,0,0,0,.281-3.6c-.082-.506-.3-1.283-.909-1.366a.667.667,0,0,0-.087-.006C140.42,1.8,139.853,5.056,141.041,9.977Zm1.632,21.856s0,0,0,0ZM88.525,27.827c-.988-.287-1.48-1.586-1.1-2.9a2.791,2.791,0,0,1,1.332-1.732l-7.385-6.2,0,.006L79.12,15.115,84.388,4.83l2.158,1.812,0,.007,8.594,7.211,0,.005a2.465,2.465,0,0,1,.655,2.671c-.381,1.317-1.488,2.156-2.478,1.87s-1.482-1.585-1.1-2.9a2.77,2.77,0,0,1,1.344-1.741L86.11,7.514,81.8,16.127,90.232,23.2a1.542,1.542,0,0,1,.357.3l.032.027-.005.007A2.645,2.645,0,0,1,91,25.956a2.432,2.432,0,0,1-2.084,1.926A1.421,1.421,0,0,1,88.525,27.827Z" transform="translate(99.767 1.102)" fill="#fff"/>
      <path id="Elements_-_Outline" data-name="Elements - Outline" d="M74.825,137.009h0a1.673,1.673,0,0,1-.942-.281,1.809,1.809,0,0,1-.752-1.439,2.912,2.912,0,0,1,1.77-2.726l-4.507-7.212a.762.762,0,0,1,1.26-.855c.139.12.38.251,1.385.262h.348c.844,0,3.088,0,3.49,2a.762.762,0,0,1-.747.911.763.763,0,0,1-.746-.613c-.116-.574-.664-.778-2.1-.778h-.263l-.257-.006,1.4,2.247h0l.253.4,2.587,4.141a2.425,2.425,0,0,1-.141,2.739A2.582,2.582,0,0,1,74.825,137.009Zm.621-3.573a1.73,1.73,0,0,0-.988.733c-.437.647-.444,1.44-.016,1.731a.668.668,0,0,0,.381.109h0a1.6,1.6,0,0,0,1.218-.768,1.433,1.433,0,0,0,.159-1.591l-.027-.039-.12-.192-.207-.005-.255.255Zm138.9,2.324c-.113,0-.225,0-.332-.008a5.592,5.592,0,0,1-3.279-1.224,3.176,3.176,0,0,1,.172-5.268,5.471,5.471,0,0,1,3.171-.954c.112,0,.226,0,.339.009a5.6,5.6,0,0,1,3.3,1.246l7.034-13.807-15.2-3.666-8.448,16.582a3.252,3.252,0,0,1-.4.778l-.246.491-.109-.057a5.111,5.111,0,0,1-3.755,1.477c-.11,0-.222,0-.333-.009a5.613,5.613,0,0,1-3.279-1.224,3.178,3.178,0,0,1,.173-5.27,5.478,5.478,0,0,1,3.174-.955c.11,0,.221,0,.332.009a5.622,5.622,0,0,1,3.279,1.233l6.942-13.626h-.011l2.807-5.51,20.388,5.132-2.656,5.211h-.013L218.5,133.829l-.024-.015A4.926,4.926,0,0,1,214.35,135.76Zm-.268-6.455c-1.972,0-3.579,1.107-3.658,2.521-.08,1.5,1.556,2.811,3.647,2.926.089,0,.183.007.279.007a3.692,3.692,0,0,0,3.482-1.851l.231-.54.043.027,8.723-17.119h.013l1.773-3.478-18.4-4.631-1.8,3.542h.011l-8.238,16.169-.486-.581a4.351,4.351,0,0,0-3.084-1.393c-.091,0-.185-.007-.278-.007-1.975,0-3.584,1.109-3.662,2.525-.081,1.494,1.556,2.807,3.648,2.925.091,0,.185.007.278.007a4.012,4.012,0,0,0,3.227-1.4l.1-.13a2.187,2.187,0,0,0,.246-.505l.012-.037,8.84-17.352,17.2,4.148-8.27,16.232-.485-.59a4.326,4.326,0,0,0-3.1-1.407C214.272,129.308,214.176,129.305,214.082,129.305ZM22.944,131.852a3.416,3.416,0,0,1-1.336-.269c-.07-.03-.14-.063-.215-.1a1.966,1.966,0,0,1-.236-.107l-.864-.089.491-.166q-.049-.042-.1-.088l-.386.22v-.578l-.51-.307.356-.191a2.08,2.08,0,0,1,1.979-2.724,2.093,2.093,0,0,1,1.882,1.186,2.063,2.063,0,0,1,.138,1.4,1.934,1.934,0,0,0,.167-.183c.666-.911.39-2.495-.645-3.69l-.029-.037c-.341-.477-.715-.975-1.084-1.457a11.107,11.107,0,0,1-4.149,1.289H18.4c-.268.025-.539.037-.807.037a7.635,7.635,0,0,1-4.461-1.362,7.336,7.336,0,0,1-2.936-4.993,13.248,13.248,0,0,1,.379-5.507c.135-.521.254-.925.375-1.268l.38-1.138a15.41,15.41,0,0,0,.45-1.651A37.91,37.91,0,0,1,8.163,103.7a6.6,6.6,0,0,1-.554-2.79A2.8,2.8,0,0,1,8.8,98.723l.023-.015a1.719,1.719,0,0,1,.939-.26c1.48,0,3.852,1.66,5.669,6.339a9.954,9.954,0,0,1,.346,5.613,13.6,13.6,0,0,1-.519,1.982c.331.475.611.867.873,1.221l.106.143a5.977,5.977,0,0,1,4.581-2.511c.085,0,.171-.006.256-.006a6.032,6.032,0,0,1,3.856,1.439,6.672,6.672,0,0,1,2.321,3.821,6.423,6.423,0,0,1-.8,4.577l-.01.017a10.463,10.463,0,0,1-2.429,2.639c.391.512.732.971,1.037,1.392l.067.1a11.952,11.952,0,0,1,.787,1.227,4.138,4.138,0,0,1,.456,1.577,3.433,3.433,0,0,1-.937,2.808,3.594,3.594,0,0,1-2.094,1.011h-.012A3.6,3.6,0,0,1,22.944,131.852Zm-1.312-1.358a.969.969,0,0,0,.132.057l.039.014.036.02a1.692,1.692,0,0,0,.161.078l.06.024.408-.138.054-.017.05-.017.018-.009a1.08,1.08,0,1,0-1.437-.512.665.665,0,0,0,.039.066l.5.4Zm-8.9-20.088a16,16,0,0,1-.452,1.638l-.383,1.146c-.112.319-.224.7-.353,1.2l0,.006a12.255,12.255,0,0,0-.356,5.094v.007a6.323,6.323,0,0,0,2.517,4.315l.006,0a6.69,6.69,0,0,0,3.885,1.179c.235,0,.474-.011.71-.033a10.157,10.157,0,0,0,3.265-.914,8.729,8.729,0,0,1-3.123.6c-.054,0-.107,0-.16,0a6.4,6.4,0,0,1-4.138-1.419,5.342,5.342,0,0,1-1.777-3.886,11.894,11.894,0,0,1,.816-4.427c.14-.4.278-.747.434-1.1l.226-.534c.062-.141.113-.26.159-.373l.148-.364-.008-.012.085-.241a13.022,13.022,0,0,0,.563-2.075l0-.017a8.96,8.96,0,0,0-.3-5.054,13.356,13.356,0,0,0-2.614-4.454,3.732,3.732,0,0,1,.5.779,8.483,8.483,0,0,1,.876,3.934,34.21,34.21,0,0,1-.293,3.65l-.2,1.421Zm1.85,3.712-.043.1c-.145.325-.274.651-.406,1.026a10.938,10.938,0,0,0-.76,4.05,4.355,4.355,0,0,0,1.431,3.172,5.415,5.415,0,0,0,3.5,1.177h.143a7.289,7.289,0,0,0,1.348-.129l-1.558-.913s-.09-.053-.266-.16a5.985,5.985,0,0,1-2.54-7.154l-.139-.19c-.139-.19-.279-.38-.42-.574l0,0Zm3.638,6.844a8.963,8.963,0,0,0,.645.881l1.384,1.576a8.255,8.255,0,0,0,1.077-.351c-.554-.712-1.126-1.447-1.71-2.22-.68-.888-1.461-1.909-2.273-2.986a3.475,3.475,0,0,0,0,.438v.011A5.389,5.389,0,0,0,18.216,120.961Zm-.3-4.974c.94,1.228,1.928,2.483,3.013,3.828.633.787,1.3,1.62,1.942,2.437a7.254,7.254,0,0,0,2.093-2.09l0,0a3.745,3.745,0,0,0,.455-3.178,4.349,4.349,0,0,0-1.928-2.289l-.005,0a4.35,4.35,0,0,0-2.236-.635,3.81,3.81,0,0,0-2.366.8A3.964,3.964,0,0,0,17.918,115.987Zm-1.379-.8-.086.215a5.1,5.1,0,0,0-.269,2.97,5.5,5.5,0,0,0,.234.752,5.619,5.619,0,0,1-.082-.77,5.152,5.152,0,0,1,.256-1.836l.3-.923.061.081a4.992,4.992,0,0,1,1.319-1.6,4.813,4.813,0,0,1,2.987-1.018,5.41,5.41,0,0,1,2.745.774,5.35,5.35,0,0,1,2.079,2.154,5.777,5.777,0,0,0-1.79-2.544,5.1,5.1,0,0,0-3.216-1.207c-.071,0-.142,0-.212.005h-.006a4.889,4.889,0,0,0-3.073,1.27l0,0a5.02,5.02,0,0,0-1.068,1.363Zm-5.809-14.093a.284.284,0,0,0-.046,0c-.03,0-.1.016-.166.165-.307.657-.078,2.828,1.627,6.113.054-.637.092-1.3.113-2a7.476,7.476,0,0,0-.774-3.463C11.235,101.407,10.945,101.092,10.731,101.092ZM9.369,99.545c-1.479,1.076-.649,3.489,1.018,6.409-.921-2.245-1.232-4.135-.773-5.117a1.221,1.221,0,0,1,.911-.729,1.3,1.3,0,0,1,.206-.017,1.368,1.368,0,0,1,.882.334,3.064,3.064,0,0,0-1.852-.978A.746.746,0,0,0,9.369,99.545ZM144.755,125.61c-.042,0-.085,0-.128,0a1.571,1.571,0,1,1,.167-3.075,2.227,2.227,0,0,1,.918.246l1.9-3.727-4.223-1.019-2.593,5.087a1.373,1.373,0,0,1-.147.288l-.2.394-.12-.045a2.05,2.05,0,0,1-1.3.434c-.043,0-.086,0-.129,0a1.571,1.571,0,1,1,.167-3.075,2.245,2.245,0,0,1,.91.244l1.8-3.53h0l.368-.727.924-1.814,7.247,1.824-1.181,2.316h0L146.3,125l-.045-.011A1.965,1.965,0,0,1,144.755,125.61Zm-.085-2.082c-.488,0-.829.255-.843.493-.014.254.335.558.856.586l.071,0a.877.877,0,0,0,.812-.392l.077-.179-.147-.178a1.069,1.069,0,0,0-.756-.331Zm-5.723-1.42c-.487,0-.828.256-.842.5s.335.555.856.584l.073,0a.967.967,0,0,0,.766-.314l.009-.012a.37.37,0,0,0,.051-.1l.012-.037.053-.1-.155-.186a1.079,1.079,0,0,0-.753-.328Zm4.38-5.121,5.277,1.273,0-.005h0l.248-.486-5.257-1.323ZM99.49,111.627h0a4.3,4.3,0,0,1-2.687-.89,4.626,4.626,0,0,1-1.653-3.862,7.839,7.839,0,0,1,1.736-4.59,7.382,7.382,0,0,1,5.069-2.942L88.516,74.07a1.336,1.336,0,0,1,2.356-1.261c.664.69,1.561,1.28,5.156,1.569l.729.053a19.491,19.491,0,0,1,5.86,1.064,6.2,6.2,0,0,1,4.186,5.167,1.336,1.336,0,0,1-2.651.34,3.568,3.568,0,0,0-2.456-3,17.2,17.2,0,0,0-5.123-.905l-.759-.053a24.575,24.575,0,0,1-2.895-.38l5.472,10.292.008,0,7.566,14.232c1.3,2,.906,5.06-.972,7.461A7.264,7.264,0,0,1,99.49,111.627Zm2.884-11.3a6.314,6.314,0,0,0-4.7,2.576c-1.935,2.473-2.048,5.635-.252,7.048a3.312,3.312,0,0,0,2.069.676,6.352,6.352,0,0,0,4.717-2.6c1.623-2.075,2-4.671.912-6.313l-.025-.041L97.97,88.27l-.008,0-7.02-13.2,1.155.354a18.212,18.212,0,0,0,3.8.62l.75.053a18.007,18.007,0,0,1,5.437.979,4.592,4.592,0,0,1,3.065,3.8.336.336,0,0,0,.667-.084,5.2,5.2,0,0,0-3.568-4.367,18.4,18.4,0,0,0-5.557-.994l-.736-.054c-4.035-.324-5.037-1.064-5.851-1.927l-.046-.048-.061-.114a.337.337,0,0,0-.3-.18.328.328,0,0,0-.156.039.337.337,0,0,0-.14.455l13.536,25.458.012-.006.717,1.379-.915-.087-.15-.011-.094.046-.027-.051Zm56.336-5.35c-.072,0-.143,0-.213-.007a4.15,4.15,0,0,1-2.489-1.018l-.01-.008a4,4,0,0,1-1.1-1.656c-.034-.1-.057-.189-.077-.269a2.252,2.252,0,0,1-.1-.312l-.387-.533.333.191a2.41,2.41,0,0,1,0-.361l-.224-.076.269-.4-.041-.516.244.061a2.37,2.37,0,1,1,2.947,3.293,2.336,2.336,0,0,0,.622.047c1.2-.123,2.545-1.385,2.815-3.568l.008-.047c.159-.713.307-1.482.438-2.185a13.039,13.039,0,0,1-4.46-2.634l-.006-.005a9.164,9.164,0,0,1-2.976-5.622,8.58,8.58,0,0,1,2.045-6.463,15.57,15.57,0,0,1,5.106-4c.55-.286,1.011-.507,1.41-.674l1.3-.567a18.6,18.6,0,0,0,1.849-.936,48.719,48.719,0,0,1,2.544-7.825c1.207-2.575,2.6-3.827,4.243-3.827a3.428,3.428,0,0,1,.733.082l.027.007a2.251,2.251,0,0,1,1.414,1.361c.884,2,.291,5.412-1.585,9.13a11.664,11.664,0,0,1-4.624,4.707,15.767,15.767,0,0,1-2.185,1.127c-.158.681-.284,1.252-.393,1.78q-.034.166-.067.33a7.062,7.062,0,0,1,.933-.063A6.987,6.987,0,0,1,172,75.584a7.069,7.069,0,0,1,1.967,4.686,7.809,7.809,0,0,1-1.5,5.008,7.521,7.521,0,0,1-4.6,2.881l-.02,0a12.213,12.213,0,0,1-1.963.158,12.515,12.515,0,0,1-2.338-.222c-.151.81-.286,1.487-.418,2.1l-.029.126a14.522,14.522,0,0,1-.454,1.656,4.863,4.863,0,0,1-1.009,1.619A3.983,3.983,0,0,1,158.71,94.977Zm-2.835-2.919.482.276.049.029a.762.762,0,0,0,.075.041l.014.006a1.37,1.37,0,0,0,1.794-.734,1.377,1.377,0,0,0-.744-1.8,1.37,1.37,0,0,0-1.785.74,1.083,1.083,0,0,0-.039.126v.616l-.052-.018a1.28,1.28,0,0,0,.086.326l.014.034.009.036c.019.077.037.149.062.222Q155.856,92.009,155.875,92.058Zm7.009-5.129.376.088q.37.086.744.148-.408-.093-.815-.219l-.287-.089,0,.009-.1-.041-.03-.009v0l-.438-.176a10.41,10.41,0,0,1-3.984-2.793,7.5,7.5,0,0,1-2.006-4.7,6.244,6.244,0,0,1,1.982-4.57A14.042,14.042,0,0,1,162.83,71.8c.33-.135.774-.312,1.3-.482l.682-.235c.144-.049.28-.095.419-.146l.487-.178,0-.014.236-.1A15.2,15.2,0,0,0,168.24,69.5l.016-.01a10.671,10.671,0,0,0,4.241-4.3c2.051-4.064,2.152-6.938,1.562-8.273a1.312,1.312,0,0,0-.755-.8,2.421,2.421,0,0,0-.5-.055c-1.22,0-2.312,1.063-3.338,3.251a31.871,31.871,0,0,0-1.573,4.352c1.533-3.757,3.437-6.208,4.946-6.208a1.279,1.279,0,0,1,.809.282c.444.355.848,1.1.244,2.606a9.918,9.918,0,0,1-2.739,3.846,40.563,40.563,0,0,1-3.43,2.626l-1.188.807.021-.068a19.717,19.717,0,0,1-1.991,1.01l-1.309.57c-.374.157-.812.367-1.34.642l-.006,0a14.579,14.579,0,0,0-4.788,3.742l0,.005a7.566,7.566,0,0,0-1.821,5.7v.007a8.164,8.164,0,0,0,2.657,5,12.031,12.031,0,0,0,4.51,2.56l.425.131Zm1.023-.817a9.224,9.224,0,0,0,2.34.31,7.839,7.839,0,0,0,1.271-.1,4.532,4.532,0,0,0,3.224-2.162,5.232,5.232,0,0,0,.5-3.569v-.006a4.69,4.69,0,0,0-5.719-3.927c-.338,1.8-.663,3.684-.994,5.74C164.355,83.452,164.135,84.8,163.907,86.112Zm-3.091-1.406a9.846,9.846,0,0,0,1.32.756c.193-1.087.393-2.21.618-3.378.27-1.45.561-3,.872-4.592a4.387,4.387,0,0,0-.587.493l-.008.007a6.42,6.42,0,0,0-1.658,2.912,10.363,10.363,0,0,0-.267,1.277Zm11.4-4.323a6.161,6.161,0,0,1-.6,4.261,4.92,4.92,0,0,1-.312.489,5.468,5.468,0,0,0,.35-.441l.007-.01a6.809,6.809,0,0,0,1.308-4.374,6.064,6.064,0,0,0-1.683-4.025,5.886,5.886,0,0,0-3.609-1.728,5.948,5.948,0,0,0-.627-.033,6.291,6.291,0,0,0-1.452.175l-.416.1v0l-.261.1a6.12,6.12,0,0,0-2.867,2.145,6.271,6.271,0,0,0-.812,1.624,6.687,6.687,0,0,1,1.088-1.386,5.984,5.984,0,0,1,1.791-1.211l.884-.4-.017.086a6.07,6.07,0,0,1,1.616-.224,5.474,5.474,0,0,1,3.864,1.58A6.223,6.223,0,0,1,172.217,80.383Zm-7.495-8.206-.278.1c-.5.16-.92.328-1.233.457a13.08,13.08,0,0,0-4.189,2.557,5.256,5.256,0,0,0-1.683,3.836,6.508,6.508,0,0,0,1.76,4.067,8.825,8.825,0,0,0,1.532,1.389l-.51-2.345c0-.005-.028-.128-.072-.368a6.915,6.915,0,0,1-.107-1.131,6.939,6.939,0,0,1,4.374-6.675l.045-.217c.063-.3.127-.615.194-.928v-.006C164.613,72.664,164.668,72.42,164.722,72.177Zm8.113-13.718c-.381,0-1.174.518-2.158,1.979a21.552,21.552,0,0,0-2.271,4.664c.683-.509,1.376-1.062,2.1-1.671a8.913,8.913,0,0,0,2.458-3.456c.136-.341.416-1.167.059-1.453A.275.275,0,0,0,172.835,58.458ZM37.283,91.542c-2.435,0-4.372-1.2-4.934-3.046a4.206,4.206,0,0,1,.779-3.74,7.086,7.086,0,0,1,3.666-2.5,7.666,7.666,0,0,1,2.218-.334,6.383,6.383,0,0,1,2.4.446l2.465-20.08-.013,0,.933-7.6L71.58,51.936l-.889,7.235-.016,0-3.081,25.1-.017,0a5.077,5.077,0,0,1-1.3,2.468A7.223,7.223,0,0,1,63.067,88.7a7.708,7.708,0,0,1-2.234.338c-2.433,0-4.37-1.2-4.933-3.047a4.2,4.2,0,0,1,.779-3.739,7.081,7.081,0,0,1,3.67-2.5,7.646,7.646,0,0,1,2.226-.338A6.348,6.348,0,0,1,65,79.873L67.489,59.58l-20.425,2.3L44.111,85.932a3.959,3.959,0,0,1-.135,1.108l-.071.559-.114-.014a6.582,6.582,0,0,1-4.275,3.621A7.727,7.727,0,0,1,37.283,91.542Zm1.729-8.621a6.665,6.665,0,0,0-1.928.291c-2.669.814-4.365,3.054-3.779,4.993.431,1.419,1.992,2.336,3.977,2.336a6.724,6.724,0,0,0,1.943-.293A5.416,5.416,0,0,0,42.972,86.9l.054-.183a2.865,2.865,0,0,0,.084-.783l0-.041.005-.041,3.055-24.87,22.468-2.535-2.825,23.01-.658-.39a5.058,5.058,0,0,0-2.578-.649,6.648,6.648,0,0,0-1.935.294c-2.672.812-4.37,3.051-3.783,4.991.432,1.42,1.993,2.337,3.976,2.337a6.708,6.708,0,0,0,1.944-.294c2.18-.665,3.77-2.328,3.866-4.043l.029-.517.049,0,3.047-24.823.016,0,.652-5.3L45.689,55.606l-.67,5.457.013,0L42.225,83.936l-.655-.381A5.093,5.093,0,0,0,39.012,82.921ZM10.073,69.77c-.187,0-.378-.009-.569-.025a5.776,5.776,0,0,1-3.341-1.383A3.457,3.457,0,0,1,4.91,65.476c.178-1.945,2.2-3.41,4.708-3.41.188,0,.38.008.569.025a5.527,5.527,0,0,1,3.721,1.791l9.866-17.8a1.1,1.1,0,0,1,1.936,1.049c-.143.638-.13,1.391,1.065,3.6l.252.459a14.135,14.135,0,0,1,1.666,3.987,4.583,4.583,0,0,1-1.52,4.678,1.1,1.1,0,0,1-1.81-.93,1.09,1.09,0,0,1,.385-.749c1.506-1.279.9-3.139-.643-5.918l-.266-.48c-.331-.613-.594-1.15-.8-1.634l-3.822,6.895.005,0-5.7,10.292A3.832,3.832,0,0,1,12.8,69.111,5.71,5.71,0,0,1,10.073,69.77Zm-.456-6.7c-1.986,0-3.582,1.075-3.712,2.5-.139,1.558,1.515,2.986,3.687,3.182,1.829.161,3.488-.618,4.019-1.837l.021-.043,5.19-9.364-.005,0,5.468-9.865.332,1.164a13.051,13.051,0,0,0,1.1,2.5l.262.473a13.051,13.051,0,0,1,1.552,3.7,3.431,3.431,0,0,1-1.137,3.465.1.1,0,0,0-.035.067.1.1,0,0,0,.023.073.1.1,0,0,0,.079.037.1.1,0,0,0,.064-.024c2.354-2,1.041-4.879-.374-7.418l-.255-.465c-1.279-2.364-1.388-3.362-1.143-4.379l.017-.072.056-.095a.1.1,0,0,0-.041-.135.094.094,0,0,0-.047-.013.1.1,0,0,0-.089.052L14.683,64.545l.007,0-.75,1.341-.428-.82-.02-.038-.17-.093.055-.1A4.4,4.4,0,0,0,10.1,63.087C9.939,63.073,9.777,63.066,9.617,63.066Zm194.288-2.727a2.021,2.021,0,0,1-1.262-.421,2.151,2.151,0,0,1-.78-1.794,3.449,3.449,0,0,1,.761-2.021,3.538,3.538,0,0,1,1.537-1.142l-3.919-7.369,0,0-1.887-3.548,9.542-8.257,1.773,3.337-.005.007,5.364,10.088-.034.018a3.137,3.137,0,0,1-.647,2.821,3.217,3.217,0,0,1-2.447,1.315,2.026,2.026,0,0,1-1.264-.421,2.152,2.152,0,0,1-.779-1.795,3.454,3.454,0,0,1,.762-2.022,3.536,3.536,0,0,1,1.55-1.148l-3.973-7.472-6.47,5.713L206.7,55.6a2.121,2.121,0,0,1,.251.474l.243.468-.112.055a3.3,3.3,0,0,1-.732,2.432A3.224,3.224,0,0,1,203.906,60.339Zm1.741-4.6-.7.059a2.306,2.306,0,0,0-1.539.922c-.664.849-.733,1.954-.15,2.412a1.018,1.018,0,0,0,.645.207,2.256,2.256,0,0,0,1.661-.931,2.175,2.175,0,0,0,.469-1.931l-.026-.077a1.068,1.068,0,0,0-.131-.237l-.023-.031Zm8.009-6.961-.7.054a2.3,2.3,0,0,0-1.549.924c-.664.85-.734,1.955-.152,2.414a1.022,1.022,0,0,0,.646.207,2.25,2.25,0,0,0,1.66-.932,1.989,1.989,0,0,0,.363-2.158l-.279-.45.035-.019ZM200.491,45.93l.02.038,7.935-7.006-.847-1.594-7.99,6.915.878,1.651Zm-87.333,7.628a1.935,1.935,0,0,1-1.84-1.058,1.806,1.806,0,0,1,.124-1.618,2.8,2.8,0,0,1,1.316-1.161,2.935,2.935,0,0,1,1.174-.254,2.526,2.526,0,0,1,.455.04V41a.762.762,0,0,1,1.523-.057c.055.176.187.414,1.038.958l.191.121a6.4,6.4,0,0,1,1.544,1.227,2.289,2.289,0,0,1,.456,2.384.763.763,0,0,1-.98.446.762.762,0,0,1-.445-.983c.21-.557-.139-1.007-1.382-1.782l-.2-.128q-.113-.072-.216-.141v8a2.425,2.425,0,0,1-1.569,2.249A2.952,2.952,0,0,1,113.158,53.558Zm.774-3.091a1.926,1.926,0,0,0-.769.169c-.713.317-1.141.986-.931,1.46a.963.963,0,0,0,.926.463,1.944,1.944,0,0,0,.781-.172,1.447,1.447,0,0,0,.978-1.265l0-.048v-.226l-.243-.161h-.28v-.146A1.415,1.415,0,0,0,113.932,50.467ZM7.168,46.543l-.211-.422-1.17-.1.952-.333-.02-.041-.206-.312.044-.044a1.358,1.358,0,0,1,.7-1.581,1.369,1.369,0,0,1,.605-.142,1.349,1.349,0,0,1,1.114.58,1.973,1.973,0,0,0-.482-.911L8.465,43.2c-.076-.1-.158-.211-.247-.327l-.387-.214a6.249,6.249,0,0,1-1.99.591H5.834a5,5,0,0,1-.542.03,4.355,4.355,0,0,1-2.476-.736,4.2,4.2,0,0,1-1.733-2.828,7.393,7.393,0,0,1,.156-3.078c.072-.3.133-.514.2-.7l.2-.619a7.9,7.9,0,0,0,.2-.78A20.231,20.231,0,0,1-.154,31.155c-.561-1.371-.435-2.37.372-2.971l.023-.016a1.178,1.178,0,0,1,.652-.188c.91,0,2.261.925,3.322,3.522a5.606,5.606,0,0,1,.253,3.159,7.269,7.269,0,0,1-.234,1c.1.139.2.268.289.391A3.466,3.466,0,0,1,6.968,34.8c.067,0,.135-.006.2-.006a3.5,3.5,0,0,1,2.194.8,3.834,3.834,0,0,1,1.372,2.174,3.708,3.708,0,0,1-.415,2.647l-.01.017a5.887,5.887,0,0,1-1.167,1.366c.165.21.308.4.44.575l.024.033a6.838,6.838,0,0,1,.465.7,2.471,2.471,0,0,1,.291.936,2.092,2.092,0,0,1-.544,1.715h0a2.17,2.17,0,0,1-1.257.634H8.553a2.16,2.16,0,0,1-.259.016,2.081,2.081,0,0,1-.78-.15c-.047-.019-.088-.039-.122-.057l-.049-.019Zm.6-1.278.017.006.037.02.019.01.165-.058.014,0a.356.356,0,0,0,.178-.206.35.35,0,0,0-.017-.27.357.357,0,0,0-.658.047.35.35,0,0,0,.006.24l.258.176Zm-4.078-8.15c-.026.07-.051.143-.078.221a5.736,5.736,0,0,0-.361,2.113,2.142,2.142,0,0,0,.722,1.54,2.7,2.7,0,0,0,1.738.55h.1l-.237-.132s-.05-.028-.148-.086a3.287,3.287,0,0,1-.465-.332,3.44,3.44,0,0,1-1.12-3.671Zm2.164,3.076a4.667,4.667,0,0,0,.337.443l.667.736.13-.042c-.245-.3-.5-.616-.751-.942q-.358-.452-.742-.939A3.112,3.112,0,0,0,5.855,40.191ZM2.689,35.249c-.034.126-.069.247-.106.366l-.2.627c-.054.163-.108.359-.175.635a6.407,6.407,0,0,0-.141,2.67v.008a3.4,3.4,0,0,0,.815,1.732,3.277,3.277,0,0,1-.631-1.777,6.7,6.7,0,0,1,.411-2.492c.078-.23.149-.419.231-.614l.142-.351c.018-.044.036-.089.053-.134l.055-.147.06-.182A6.708,6.708,0,0,0,3.481,34.5l0-.02a4.676,4.676,0,0,0-.2-2.6q-.132-.323-.27-.605a4.53,4.53,0,0,1,.043.674,18.846,18.846,0,0,1-.126,2l-.044.365h0v.008l-.127,1.05Zm3.046,2.36c.471.593.974,1.21,1.564,1.916.27.324.6.725.939,1.134a3.619,3.619,0,0,0,.878-.957,1.8,1.8,0,0,0,.2-1.529,2.113,2.113,0,0,0-.96-1.1l-.007,0a2.13,2.13,0,0,0-1.063-.293,1.842,1.842,0,0,0-1.168.4A1.877,1.877,0,0,0,5.734,37.609ZM1.487,29.94a4.808,4.808,0,0,0,.571,2.184q0-.094,0-.19a3.8,3.8,0,0,0-.426-1.76A1.3,1.3,0,0,0,1.487,29.94ZM.8,29a.867.867,0,0,0-.3.794,1.383,1.383,0,0,1,.1-.381.93.93,0,0,1,.362-.425.5.5,0,0,0-.076-.006A.214.214,0,0,0,.8,29Zm48.338,5.211a1.642,1.642,0,0,1-.226-.016,1.808,1.808,0,0,1-1.308-.963A2.909,2.909,0,0,1,48,30L40.788,25.5a.762.762,0,0,1,.753-1.323.664.664,0,0,0,.178.025,3.3,3.3,0,0,0,1.189-.4l.2-.1a5.4,5.4,0,0,1,2.286-.691,2.205,2.205,0,0,1,1.836.91.76.76,0,0,1-.142,1.065.761.761,0,0,1-1.07-.144.732.732,0,0,0-.631-.309,4.238,4.238,0,0,0-1.611.537l-.219.108-.234.107L45.7,26.771h0l.274.169,4.141,2.587a2.425,2.425,0,0,1,1.074,2.523A2.31,2.31,0,0,1,49.138,34.209Zm-.264-3.661a1.73,1.73,0,0,0-.567,1.093c-.108.772.233,1.488.746,1.562a.633.633,0,0,0,.086.006c.485,0,.962-.583,1.063-1.3a1.434,1.434,0,0,0-.554-1.5l-.041-.023-.192-.12-.316.144-.15.184Zm96.307,3.379a3.616,3.616,0,0,1-.614-.053l-.012,0a3.311,3.311,0,0,1-1.495-.708c-.068-.057-.124-.111-.168-.155a1.89,1.89,0,0,1-.186-.164l-.869-.369.572-.014q-.038-.063-.071-.129h-.166V31.97l-.384-.637h.325a2.009,2.009,0,0,1,1.709-1.9,2.05,2.05,0,0,1,.3-.022,2.022,2.022,0,0,1,1.99,1.714,1.988,1.988,0,0,1-.225,1.257q.066-.037.13-.081c.854-.64,1.04-2.15.432-3.519l-.017-.045c-.18-.539-.383-1.1-.575-1.612a10.556,10.556,0,0,1-2.1.21,10.82,10.82,0,0,1-2.038-.2h-.007a7.488,7.488,0,0,1-4.451-2.686,7.022,7.022,0,0,1-1.291-5.394,12.639,12.639,0,0,1,1.884-4.924c.271-.442.493-.778.7-1.057l.665-.933a14.917,14.917,0,0,0,.864-1.372,36.2,36.2,0,0,1-1.517-6.819,6.32,6.32,0,0,1,.274-2.71,2.694,2.694,0,0,1,1.71-1.678l.026-.008a1.57,1.57,0,0,1,.419-.056A3.237,3.237,0,0,1,143.5,1.453a13.364,13.364,0,0,1,1.436,5.516,9.5,9.5,0,0,1-1.252,5.229,12.976,12.976,0,0,1-1.021,1.66c.172.533.314.955.452,1.345l.046.13a5.768,5.768,0,0,1,3.482-1.177,5.431,5.431,0,0,1,1.393.179A5.8,5.8,0,0,1,151.4,16.8a6.388,6.388,0,0,1,1.056,4.149,6.162,6.162,0,0,1-2.015,3.968l-.015.014a10.009,10.009,0,0,1-2.94,1.727c.219.59.4,1.087.552,1.539l0,.009.041.128a11.743,11.743,0,0,1,.366,1.308,4.045,4.045,0,0,1-.024,1.577,3.3,3.3,0,0,1-1.653,2.318A3.4,3.4,0,0,1,145.182,33.927Zm-1.831-1.86a.916.916,0,0,0,.168.161l.033.024.029.03a1.68,1.68,0,0,0,.124.117l.036.03.408-.01h.1l.014,0a1.011,1.011,0,0,0,.854-1.145,1.016,1.016,0,0,0-1-.861,1.037,1.037,0,0,0-.15.011,1,1,0,0,0-.662.4.992.992,0,0,0-.184.743c0,.018.012.049.022.084l.007.023Zm-1.439-5.911a9.753,9.753,0,0,0,2.618.145h-.024a8.121,8.121,0,0,1-2.534-.393,6.148,6.148,0,0,1-3.394-2.459,5.126,5.126,0,0,1-.538-4.059,11.419,11.419,0,0,1,1.983-3.821c.25-.337.467-.609.7-.881l.351-.419c.089-.1.169-.2.249-.3l.232-.29v0l.151-.206a12.408,12.408,0,0,0,1.09-1.735l.009-.016a8.511,8.511,0,0,0,1.134-4.682A13.667,13.667,0,0,0,143,2.692c.032.123.06.255.083.4a8.119,8.119,0,0,1-.3,3.845,32.787,32.787,0,0,1-1.286,3.251l-.6,1.3-.021-.086a15.415,15.415,0,0,1-.841,1.321l-.671.941c-.189.256-.4.571-.654.992l0,.006a11.649,11.649,0,0,0-1.743,4.541v.007a6.008,6.008,0,0,0,1.089,4.621l0,.006A6.488,6.488,0,0,0,141.912,26.157Zm2.221-.864a7.881,7.881,0,0,0,1.026-.018c-.3-.794-.618-1.616-.931-2.475-.365-.98-.784-2.107-1.219-3.3a3.274,3.274,0,0,0-.1.339l0,.01a5.1,5.1,0,0,0,.064,2.652,8.172,8.172,0,0,0,.341.98Zm-2.608-10-.043.051c-.22.252-.423.506-.657.822a10.461,10.461,0,0,0-1.818,3.477,4.138,4.138,0,0,0,.416,3.275,5.16,5.16,0,0,0,2.856,2.041,6.888,6.888,0,0,0,1.339.293l-1.132-1.224s-.068-.074-.2-.222a5.843,5.843,0,0,1-.555-.749l0-.006a5.7,5.7,0,0,1,.228-6.5l-.068-.194c-.075-.215-.151-.43-.225-.649l0-.005Zm2.563,2.6c.5,1.341,1.048,2.758,1.674,4.32.334.833.717,1.794,1.086,2.745a6.875,6.875,0,0,0,2.463-1.312l0,0a3.554,3.554,0,0,0,1.3-2.755,4.076,4.076,0,0,0-1.115-2.613l0,0a3.986,3.986,0,0,0-2.951-1.361,3.462,3.462,0,0,0-1.27.235A3.74,3.74,0,0,0,144.088,17.891Zm-1.04-1.112-.143.177a4.843,4.843,0,0,0-1.07,2.622q-.017.265-.008.521c.027-.165.063-.333.108-.5a4.944,4.944,0,0,1,.749-1.611l.553-.795.036.1a4.759,4.759,0,0,1,1.632-1.076,4.458,4.458,0,0,1,1.635-.3,4.974,4.974,0,0,1,3.689,1.687,5.16,5.16,0,0,1,1.237,2.256,5.526,5.526,0,0,0-.9-2.5,4.79,4.79,0,0,0-2.78-2.044h-.006a4.429,4.429,0,0,0-1.139-.147,4.7,4.7,0,0,0-2,.447,4.819,4.819,0,0,0-1.353.944ZM141.591,2.3c-.068,0-.14.074-.189.135-.448.57-.8,2.563-.2,5.9.215-.541.424-1.11.63-1.717a7.113,7.113,0,0,0,.26-3.366c-.09-.556-.275-.92-.482-.949ZM140.852.517c-1.566.542-1.551,2.795-.926,5.731-.152-2.051.079-3.656.69-4.433a1.218,1.218,0,0,1,.974-.517h0a1.159,1.159,0,0,1,.153.011,1.243,1.243,0,0,1,.71.347C141.9.81,141.348.5,140.993.5A.575.575,0,0,0,140.852.517ZM88.92,28.382h0a1.925,1.925,0,0,1-.533-.075,2.147,2.147,0,0,1-1.392-1.369,3.44,3.44,0,0,1-.052-2.153,3.491,3.491,0,0,1,.992-1.63l-6.367-5.342,0,.006-3.071-2.578,5.736-11.2,2.913,2.446,0,.007,8.675,7.279-.02.027a3.12,3.12,0,0,1,.474,2.872,2.9,2.9,0,0,1-2.561,2.287,1.927,1.927,0,0,1-.535-.076c-1.252-.363-1.9-1.942-1.442-3.522a3.518,3.518,0,0,1,1-1.64L86.274,8.3,82.428,16l8.1,6.794a2.051,2.051,0,0,1,.41.344l.378.315-.075.1a3.286,3.286,0,0,1,.246,2.546A2.912,2.912,0,0,1,88.92,28.382Zm.68-5.06-.62.315A2.3,2.3,0,0,0,87.9,25.063c-.3,1.031.052,2.078.761,2.284a.923.923,0,0,0,.256.035h0a1.957,1.957,0,0,0,1.6-1.566,2.17,2.17,0,0,0-.288-1.959l-.048-.057a1.018,1.018,0,0,0-.212-.172l-.035-.021Zm4.8-9.423-.63.312a2.279,2.279,0,0,0-1.085,1.431c-.3,1.033.049,2.079.759,2.285a.927.927,0,0,0,.257.036,1.951,1.951,0,0,0,1.6-1.565,1.981,1.981,0,0,0-.47-2.128l-.4-.293.022-.031ZM81.172,16.176l.035.029,4.716-9.434L84.547,5.616l-4.8,9.372,1.422,1.194Z" transform="translate(99.613 1.102)" fill="rgba(0,0,0,0)"/>
      <ellipse id="Shadow" cx="156" cy="17.5" rx="156" ry="17.5" transform="translate(34 305.142)" opacity="0.41"/>
    </g>
  </g>
</svg>
