<svg id="Group_11601" data-name="Group 11601" xmlns="http://www.w3.org/2000/svg" xmlns:xlink="http://www.w3.org/1999/xlink" width="279.521" height="82.13" viewBox="0 0 279.521 82.13">
  <defs>
    <linearGradient id="linear-gradient" x1="1.948" y1="0.639" x2="0.88" y2="0.421" gradientUnits="objectBoundingBox">
      <stop offset="0" stop-color="#645095"/>
      <stop offset="1" stop-color="#402669"/>
    </linearGradient>
    <linearGradient id="linear-gradient-2" x1="0.5" x2="0.5" y2="1" gradientUnits="objectBoundingBox">
      <stop offset="0" stop-color="#f11775"/>
      <stop offset="1" stop-color="#fb6580"/>
    </linearGradient>
    <filter id="Text" x="29.479" y="20.901" width="250.042" height="44.701" filterUnits="userSpaceOnUse">
      <feOffset dy="3" input="SourceAlpha"/>
      <feGaussianBlur stdDeviation="3" result="blur"/>
      <feFlood flood-opacity="0.361"/>
      <feComposite operator="in" in2="blur"/>
      <feComposite in="SourceGraphic"/>
    </filter>
  </defs>
  <g id="Group_11600" data-name="Group 11600">
    <g id="Logo">
      <g id="Group_11599" data-name="Group 11599">
        <g id="Group_11596" data-name="Group 11596" transform="translate(0 35.389)">
          <path id="Path_9594" data-name="Path 9594" d="M47.937,114.9c-6.1,0-11.776-1.1-15.788-3.274-9.959-5.4-9.144-16.128-7.322-24.872C26.892,76.846,32.935,68.242,33,68.157l.676.478c-.06.085-6.006,8.553-8.034,18.284-1.763,8.463-2.572,18.837,6.906,23.976,7.442,4.036,20.8,4.257,31.766.524,6.432-2.188,10.114-5.417,10.1-8.856-.013-3.212-3.28-6.211-8.739-8.022-8.553-2.836-23.231-3.07-31.054-1.506l-.161-.811c8.088-1.618,22.667-1.39,31.475,1.531,5.814,1.928,9.292,5.218,9.307,8.8.015,3.817-3.872,7.332-10.662,9.643A52.651,52.651,0,0,1,47.937,114.9Z" transform="translate(-23.702 -68.157)" fill="#757b93"/>
        </g>
        <path id="Path_9595" data-name="Path 9595" d="M47.16,109c4.812,0,8.712,2.075,8.712,4.635s-3.9,4.634-8.712,4.634-8.712-2.075-8.712-4.634S42.348,109,47.16,109Z" transform="translate(-26.903 -41.633)" fill="#5e6582"/>
        <path id="Path_9596" data-name="Path 9596" d="M48.052,109c3.037,0,5.5,1.31,5.5,2.925s-2.461,2.924-5.5,2.924-5.5-1.309-5.5-2.924S45.015,109,48.052,109Z" transform="translate(-27.795 -41.633)" fill="#757b93"/>
        <path id="Path_9597" data-name="Path 9597" d="M46.42,106.3v4.542c0,.726,1.106,1.315,2.471,1.315s2.471-.589,2.471-1.315V106.3Z" transform="translate(-28.634 -41.047)" fill="#5e6582"/>
        <path id="Path_9598" data-name="Path 9598" d="M48.891,104.619c1.365,0,2.471.588,2.471,1.314s-1.106,1.315-2.471,1.315-2.471-.589-2.471-1.315S47.526,104.619,48.891,104.619Z" transform="translate(-28.634 -39.937)" fill="#757b93"/>
        <path id="Path_9599" data-name="Path 9599" d="M48.2,51.945V94.28c0,.317.483.574,1.079.574s1.079-.257,1.079-.574V51.945Z" transform="translate(-29.02 -27.719)" fill="#ccd3ea"/>
        <path id="Path_9600" data-name="Path 9600" d="M46.42,56.146v8.371c0,.726,1.106,1.315,2.471,1.315s2.471-.589,2.471-1.315V56.146Z" transform="translate(-28.634 -27.729)" fill="#2d2c3c"/>
        <path id="Path_9601" data-name="Path 9601" d="M46.42,53.291v8.371c0,.726,1.106,1.314,2.471,1.314s2.471-.588,2.471-1.314V53.291Z" transform="translate(-28.634 -26.992)" fill="#fb6580"/>
        <path id="Path_9602" data-name="Path 9602" d="M48.891,51.612c1.365,0,2.471.589,2.471,1.315s-1.106,1.315-2.471,1.315-2.471-.589-2.471-1.315S47.526,51.612,48.891,51.612Z" transform="translate(-28.634 -26.442)" fill="#2d2522"/>
        <path id="Path_9603" data-name="Path 9603" d="M67.243,19.122a7.177,7.177,0,0,1,1.784,9.963l-5.309,7.626a7.156,7.156,0,0,1-11.747-8.178l5.309-7.627A7.177,7.177,0,0,1,67.243,19.122Z" transform="translate(-29.562 -17.846)" fill="url(#linear-gradient)"/>
        <g id="Group_11597" data-name="Group 11597" transform="translate(13.781 14.129)">
          <path id="Path_9604" data-name="Path 9604" d="M56.452,38.126c-1.715-1.376-3.9-1.5-4.885-.269l-1.011,1.426c.994-1.2,3.159-1.073,4.861.292s2.307,3.485,1.323,4.712l1.035-1.449C58.759,41.61,58.167,39.5,56.452,38.126Z" transform="translate(-43.313 -37.01)" fill="#fb6580"/>
          <path id="Path_9605" data-name="Path 9605" d="M53.409,39.976c-1.7-1.365-3.868-1.491-4.861-.292L41.305,49.9l6.2,4.976,7.223-10.193C55.716,43.461,55.123,41.352,53.409,39.976Z" transform="translate(-41.305 -37.412)" fill="#2d2c3c"/>
          <path id="Path_9606" data-name="Path 9606" d="M48.528,49.284c-1.715-1.375-3.9-1.5-4.885-.269l-1.011,1.426c.994-1.2,3.159-1.073,4.861.292s2.307,3.485,1.324,4.711L49.851,54C50.835,52.768,50.243,50.659,48.528,49.284Z" transform="translate(-41.593 -39.432)" fill="#5e6582"/>
        </g>
        <path id="Path_9607" data-name="Path 9607" d="M41.173,52.731c-.983,1.226-.391,3.335,1.323,4.711s3.9,1.5,4.886.269.391-3.336-1.323-4.711S42.157,51.5,41.173,52.731Z" transform="translate(-27.392 -26.577)" fill="#222130"/>
        <path id="Path_9608" data-name="Path 9608" d="M43.594,55.989a1.786,1.786,0,0,0-2.431-.146l-3.621,5.11,3.1,2.487,3.612-5.1A1.78,1.78,0,0,0,43.594,55.989Z" transform="translate(-26.707 -27.512)" fill="#5e6582"/>
        <path id="Path_9609" data-name="Path 9609" d="M39.377,62.5a1.778,1.778,0,0,0-2.443-.135c-.067.084-2.191,3.889-2.191,3.889l1.974,1.583s3.254-2.9,3.321-2.982A1.779,1.779,0,0,0,39.377,62.5Z" transform="translate(-26.099 -29.14)" fill="#2d2c3c"/>
        <path id="Path_9610" data-name="Path 9610" d="M34.7,67.376a1.337,1.337,0,1,0,1.553.085A1.131,1.131,0,0,0,34.7,67.376Z" transform="translate(-26.057 -30.376)" fill="#2d2c3c"/>
        <path id="Path_9612" data-name="Path 9612" d="M50.332,44.293c-.78.972-1.913,1.359-2.53.864s-.485-1.685.3-2.657,1.913-1.359,2.53-.864S51.112,43.32,50.332,44.293Z" transform="translate(-28.85 -23.862)" fill="#ccd3ea"/>
        <path id="Path_9613" data-name="Path 9613" d="M49.986,44.041c-.647.806-1.585,1.127-2.1.716s-.4-1.4.244-2.2,1.585-1.127,2.1-.716S50.633,43.234,49.986,44.041Z" transform="translate(-28.883 -23.915)" fill="#f68712"/>
      </g>
      <g transform="matrix(1, 0, 0, 1, 0, 0)" filter="url(#Text)">
        <path id="Text-2" data-name="Text" d="M-57.239,12.424h5.066V.489h2.412l3.343,11.935h5.1L-45.211-.411c2.619-1,3.446-3.185,3.446-6.305,0-5.244-3.171-6.917-8.754-6.917h-6.72ZM-52.173-2.47v-7.914h1.9c2.929,0,3.722,1.287,3.722,3.925,0,2.8-1.068,3.989-4,3.989ZM-36.63,12.424h4.79L-30.7,6.409h4.859l1.1,6.016h4.721L-25.6-13.633h-5.445Zm6.445-9.04,1.9-10.938,1.9,10.938Zm15.646,9.04H-7.75C-1.2,12.424.9,9.69.9,3.964v-9.49c0-5.565-2.068-8.107-8.857-8.107h-6.583Zm5.066-3.314V-10.256h1.516c3.343,0,3.688,1.287,3.688,4.407V4.125c0,3.249-.138,4.986-3.619,4.986ZM7.483,12.424h5.032V-13.633H7.483Zm19.644.354c5.962,0,8.03-3.281,8.03-8.525v-9.78c0-5.276-2.068-8.4-8.03-8.4-6,0-8.064,3.121-8.064,8.4v9.78C19.063,9.529,21.1,12.778,27.127,12.778Zm0-3.507c-2.516,0-2.895-1.737-2.895-3.893v-12c0-2.188.414-3.828,2.895-3.828s2.86,1.641,2.86,3.828v12C29.988,7.535,29.609,9.272,27.127,9.272ZM59.7,12.778c4.17,0,7-2.638,7-6.4,0-3.442-1.9-5.726-4.17-7.56L59.041-4.047c-1.482-1.19-2.275-2.155-2.275-3.925a2.248,2.248,0,0,1,2.344-2.445c2.24,0,2.619,1.834,2.723,4.279l4.377-.708c-.276-3.8-1.758-7.077-7-7.077-4.446,0-7.2,2.316-7.2,6.434a7.52,7.52,0,0,0,3.24,6.305L58.765,1.68c1.827,1.48,3.067,2.734,3.067,4.986a2.156,2.156,0,0,1-2.309,2.445c-2.24,0-3.033-1.995-3.171-5.083l-4.377.8C52.182,10.012,54.595,12.778,59.7,12.778Zm15.474-.354h5.1V-10.127h4.342v-3.507H70.724v3.507h4.446Zm12.579,0h4.79l1.137-6.016h4.859l1.1,6.016h4.721L98.777-13.633H93.332Zm6.445-9.04,1.9-10.938,1.9,10.938Zm17.128,9.04h5.1V-10.127h4.342v-3.507H106.876v3.507h4.446Zm14.819,0h5.032V-13.633h-5.032Zm19.644.354c5.962,0,8.03-3.281,8.03-8.525v-9.78c0-5.276-2.068-8.4-8.03-8.4-6,0-8.064,3.121-8.064,8.4v9.78C137.721,9.529,139.754,12.778,145.785,12.778Zm0-3.507c-2.516,0-2.895-1.737-2.895-3.893v-12c0-2.188.414-3.828,2.895-3.828s2.86,1.641,2.86,3.828v12C148.645,7.535,148.266,9.272,145.785,9.272Zm14.475,3.153H164.6V-3.146l6.824,15.57H174.8V-13.633h-4.2V1.229l-6.789-14.863h-3.55Z" transform="translate(95.72 40.82)" fill="url(#linear-gradient-2)"/>
      </g>
      <path id="Text-3" data-name="Text" d="M5.994-3.473h-.7L3.023.245.752-3.473H0L2.654.86V3.15h.691V.86Zm4.173,6.68A3.331,3.331,0,0,0,13.64-.162,3.331,3.331,0,0,0,10.167-3.53,3.333,3.333,0,0,0,6.685-.162,3.333,3.333,0,0,0,10.167,3.207Zm0-.624A2.693,2.693,0,0,1,7.376-.162a2.693,2.693,0,0,1,2.791-2.744A2.683,2.683,0,0,1,12.939-.162,2.683,2.683,0,0,1,10.167,2.582Zm8.184.624c1.694,0,2.716-.984,2.716-2.886V-3.473h-.681V.293c0,1.571-.738,2.29-2.034,2.29s-2.025-.719-2.025-2.29V-3.473h-.7V.321C15.627,2.223,16.658,3.207,18.352,3.207ZM28.939,3.15,27.321.879A2.053,2.053,0,0,0,28.835-1.2c0-1.419-1.022-2.271-2.706-2.271H23.65V3.15h.7V1.05h1.779a4.715,4.715,0,0,0,.53-.028L28.173,3.15ZM26.11.453H24.35V-2.868h1.76c1.325,0,2.025.606,2.025,1.665C28.135-.162,27.435.453,26.11.453Zm7.806,2.7h2.7A3.271,3.271,0,0,0,40.161-.162a3.271,3.271,0,0,0-3.548-3.312h-2.7Zm.7-.606V-2.868h1.959a2.656,2.656,0,0,1,2.9,2.706,2.656,2.656,0,0,1-2.9,2.706Zm12.442.606H47.8L44.769-3.473h-.691L41.05,3.15h.729l.795-1.769h3.69ZM42.829.813l1.59-3.558L46.008.813ZM49.367,3.15h.7V-3.473h-.7Zm3.331,0h4.409V2.545H53.4V-3.473h-.7ZM62.964-3.473h-.7L59.993.245,57.722-3.473h-.747L59.624.86V3.15h.691V.86ZM67.477,3.15h2.7A3.271,3.271,0,0,0,73.722-.162a3.271,3.271,0,0,0-3.548-3.312h-2.7Zm.7-.606V-2.868h1.959a2.656,2.656,0,0,1,2.9,2.706,2.656,2.656,0,0,1-2.9,2.706Zm10.484.662A3.331,3.331,0,0,0,82.134-.162,3.331,3.331,0,0,0,78.661-3.53,3.333,3.333,0,0,0,75.179-.162,3.333,3.333,0,0,0,78.661,3.207Zm0-.624A2.693,2.693,0,0,1,75.87-.162a2.693,2.693,0,0,1,2.791-2.744A2.683,2.683,0,0,1,81.434-.162,2.683,2.683,0,0,1,78.661,2.582ZM86,3.207c1.694,0,2.47-.833,2.47-1.807,0-2.413-4.078-1.315-4.078-3.132,0-.662.539-1.2,1.75-1.2a3.41,3.41,0,0,1,1.817.549l.237-.558a3.739,3.739,0,0,0-2.053-.587c-1.684,0-2.441.842-2.441,1.817,0,2.451,4.078,1.334,4.078,3.151,0,.653-.539,1.173-1.779,1.173a3.252,3.252,0,0,1-2.186-.8l-.274.539A3.591,3.591,0,0,0,86,3.207Zm5.166-.662V.084H94.6v-.6H91.17V-2.868h3.842v-.606H90.47V3.15h4.684V2.545Zm11.95.662a3.331,3.331,0,0,0,3.473-3.368A3.331,3.331,0,0,0,103.12-3.53,3.333,3.333,0,0,0,99.638-.162,3.333,3.333,0,0,0,103.12,3.207Zm0-.624a2.693,2.693,0,0,1-2.791-2.744,2.693,2.693,0,0,1,2.791-2.744,2.683,2.683,0,0,1,2.772,2.744A2.683,2.683,0,0,1,103.12,2.582Zm10.058-5.45v-.606h-4.542V3.15h.7V.34h3.425V-.266h-3.425v-2.6Zm9.717-.606V-.521h-4.144V-3.473h-.7V3.15h.7V.094H122.9V3.15h.691V-3.473Zm8.27,6.623h.738l-3.028-6.623h-.691L125.157,3.15h.729l.795-1.769h3.69ZM126.936.813l1.59-3.558,1.59,3.558Zm9.017-4.286h-2.479V3.15h.7V1.059h1.779c1.684,0,2.706-.852,2.706-2.261S137.637-3.473,135.953-3.473ZM135.934.444h-1.76V-2.868h1.76c1.325,0,2.025.606,2.025,1.665C137.959-.162,137.259.444,135.934.444Zm7.191-3.917h-2.479V3.15h.7V1.059h1.779c1.684,0,2.706-.852,2.706-2.261S144.809-3.473,143.125-3.473ZM143.106.444h-1.76V-2.868h1.76c1.325,0,2.025.606,2.025,1.665C145.131-.162,144.431.444,143.106.444Zm4.712,2.706h.7V-3.473h-.7Zm8.175-6.623V1.9l-4.267-5.374h-.577V3.15h.7V-2.224l4.258,5.374h.577V-3.473Zm4.021,6.018V.084h3.425v-.6h-3.425V-2.868h3.842v-.606h-4.542V3.15H164V2.545Zm7.929.662c1.694,0,2.47-.833,2.47-1.807,0-2.413-4.078-1.315-4.078-3.132,0-.662.539-1.2,1.75-1.2a3.41,3.41,0,0,1,1.817.549l.237-.558a3.739,3.739,0,0,0-2.053-.587c-1.684,0-2.441.842-2.441,1.817,0,2.451,4.078,1.334,4.078,3.151,0,.653-.539,1.173-1.779,1.173a3.252,3.252,0,0,1-2.186-.8l-.274.539A3.592,3.592,0,0,0,167.943,3.207Zm6.292,0c1.694,0,2.47-.833,2.47-1.807,0-2.413-4.078-1.315-4.078-3.132,0-.662.539-1.2,1.75-1.2a3.41,3.41,0,0,1,1.817.549l.237-.558a3.739,3.739,0,0,0-2.053-.587c-1.684,0-2.441.842-2.441,1.817,0,2.451,4.078,1.334,4.078,3.151,0,.653-.539,1.173-1.779,1.173a3.252,3.252,0,0,1-2.186-.8l-.274.539A3.591,3.591,0,0,0,174.236,3.207Z" transform="translate(73.597 68.856)" fill="#c6c6d0"/>
    </g>
  </g>
</svg>
